<svg xmlns="http://www.w3.org/2000/svg" width="479" height="196" fill="none" viewBox="0 0 479 196"><path fill="#fff" d="M58.832 107.525C61.37 109.772 65.984 110.894 72.675 110.894C79.901 110.894 86.078 108.356 91.205 103.277C91.839 102.594 93.133 101.08 95.087 98.736L110.248 104.156C106.537 109.283 103.851 112.677 102.191 114.337C94.036 122.493 84.197 126.569 72.674 126.569C61.199 126.569 51.384 122.493 43.231 114.337C35.076 106.183 31 96.345 31 84.82C31 73.297 35.076 63.459 43.231 55.303C51.385 47.149 61.199 43.072 72.674 43.072C82.536 43.072 91.179 46.051 98.602 52.008C99.822 53.033 101.019 54.132 102.191 55.304C102.678 55.793 104.07 57.331 106.366 59.918L98.749 67.608L58.832 107.525ZM84.174 60.65C82.464 59.332 78.632 58.672 72.675 58.672C65.497 58.672 59.356 61.224 54.255 66.326C49.152 71.429 46.601 77.594 46.601 84.82C46.601 90.729 47.26 94.561 48.579 96.319L84.174 60.65Z"/><path fill="#fff" d="M143.061 69.439V124.59H127.827V49.224H143.061V58.013C146.234 49.42 152.606 45.122 162.177 45.122C170.331 45.122 176.813 48.015 181.623 53.801C186.432 59.587 188.911 66.851 189.057 75.591V124.59H173.896V76.177C173.896 71.832 172.309 68.109 169.135 65.008C165.96 61.908 162.177 60.357 157.782 60.357C153.435 60.357 149.676 61.871 146.503 64.898C144.745 66.705 143.598 68.219 143.061 69.439Z"/><path fill="#fff" d="M203.852 125.322C209.32 124.736 212.055 123.027 212.055 120.195V49.224H227.216V120.049C227.216 132.403 219.427 139.19 203.852 140.41V125.322ZM227.143 21.319C229.242 23.37 230.292 25.885 230.292 28.863C230.292 31.842 229.241 34.356 227.143 36.407C225.043 38.458 222.529 39.483 219.599 39.483C216.717 39.483 214.227 38.458 212.128 36.407C210.027 34.356 208.979 31.842 208.979 28.863C208.979 25.885 210.028 23.37 212.128 21.319C214.227 19.268 216.717 18.243 219.599 18.243C222.529 18.243 225.043 19.268 227.143 21.319Z"/><path fill="#fff" d="M289.619 43.072C301.142 43.072 310.97 47.15 319.098 55.303C327.229 63.458 331.293 73.297 331.293 84.82C331.293 96.344 327.229 106.183 319.098 114.337C310.969 122.493 301.142 126.569 289.619 126.569C278.144 126.569 268.33 122.493 260.176 114.337C252.021 106.183 247.945 96.345 247.945 84.82C247.945 73.297 252.021 63.459 260.176 55.303C268.329 47.149 278.144 43.072 289.619 43.072ZM271.125 66.363C266.021 71.49 263.471 77.642 263.471 84.82C263.471 92.047 266.022 98.199 271.125 103.277C276.227 108.356 282.392 110.894 289.618 110.894C296.844 110.894 303.009 108.356 308.111 103.277C313.214 98.199 315.765 92.047 315.765 84.82C315.765 77.642 313.213 71.49 308.111 66.363C303.009 61.236 296.843 58.673 289.618 58.673C282.392 58.672 276.227 61.236 271.125 66.363Z"/><path fill="#fff" d="M365.937 149.932H349.897L369.965 107.818L341.913 49.224H358.978L378.094 90.459L397.21 49.224H414.202L365.937 149.932Z"/><path fill="#fff" d="M285.999 74.947C287.016 75.951 287.524 77.172 287.524 78.607C287.524 80.09 287.015 81.334 285.999 82.338C284.982 83.343 283.757 83.845 282.321 83.845C280.91 83.845 279.69 83.343 278.662 82.338C277.633 81.334 277.119 80.09 277.119 78.607C277.119 77.172 277.633 75.952 278.662 74.947C279.69 73.942 280.91 73.44 282.321 73.44C283.757 73.44 284.983 73.942 285.999 74.947Z"/><path fill="#fff" d="M303.58 74.947C304.597 75.951 305.105 77.172 305.105 78.607C305.105 80.09 304.596 81.334 303.58 82.338C302.563 83.343 301.338 83.845 299.902 83.845C298.491 83.845 297.271 83.343 296.243 82.338C295.214 81.334 294.7 80.09 294.7 78.607C294.7 77.172 295.214 75.952 296.243 74.947C297.271 73.942 298.491 73.44 299.902 73.44C301.338 73.44 302.564 73.942 303.58 74.947Z"/><path fill="#fff" d="M447.009 29.923C447.009 33.057 446.234 35.966 444.683 38.649C443.131 41.332 441.004 43.457 438.3 45.024C435.597 46.591 432.7 47.375 429.613 47.375C426.525 47.375 423.63 46.595 420.925 45.036C418.222 43.476 416.09 41.351 414.531 38.661C412.972 35.971 412.193 33.088 412.193 30.013C412.193 26.909 412.972 23.997 414.531 21.277C416.09 18.557 418.218 16.421 420.914 14.868C423.609 13.316 426.51 12.539 429.612 12.539C432.714 12.539 435.606 13.311 438.288 14.856C440.97 16.401 443.093 18.533 444.659 21.253C446.226 23.973 447.009 26.863 447.009 29.923ZM444.594 29.945C444.594 27.284 443.921 24.782 442.577 22.439C441.232 20.095 439.408 18.251 437.103 16.905C434.798 15.56 432.316 14.887 429.657 14.887C426.983 14.887 424.474 15.56 422.134 16.905C419.792 18.251 417.952 20.095 416.615 22.439C415.278 24.782 414.61 27.299 414.61 29.99C414.61 32.666 415.278 35.165 416.615 37.486C417.952 39.807 419.796 41.64 422.144 42.986C424.494 44.331 426.998 45.004 429.657 45.004C432.302 45.004 434.783 44.328 437.103 42.975C439.422 41.622 441.25 39.788 442.587 37.475C443.925 35.161 444.594 32.651 444.594 29.945ZM422.367 19.785H430.721C432.671 19.785 434.075 19.981 434.932 20.373C435.788 20.765 436.487 21.405 437.026 22.292C437.565 23.18 437.836 24.215 437.836 25.398C437.836 26.419 437.644 27.299 437.26 28.038C436.964 28.585 436.322 29.184 435.331 29.835C436.232 30.279 436.838 30.793 437.148 31.377C437.459 31.961 437.614 32.963 437.614 34.383V36.646C437.614 37.711 437.85 38.598 438.323 39.308L438.655 39.841H435.109C434.88 39.011 434.719 38.026 434.628 36.885L434.467 34.419C434.408 33.515 434.265 32.878 434.036 32.508C433.807 32.138 433.483 31.871 433.063 31.708C432.643 31.545 431.807 31.463 430.554 31.463H425.535V39.84H422.366V19.785H422.367ZM425.535 22.666V28.605H430.455C431.947 28.605 432.959 28.436 433.491 28.095C434.274 27.608 434.666 26.781 434.666 25.613C434.666 24.594 434.385 23.848 433.823 23.375C433.261 22.902 432.206 22.666 430.654 22.666H425.535Z"/><path fill="#fff" d="M110.504 171.089C110.504 174.647 107.911 176.667 102.725 176.667H93.3184V155.561H102.123C106.645 155.561 109.389 157.461 109.389 160.958C109.389 163.461 107.972 165.089 105.861 165.782C108.846 166.355 110.504 168.164 110.504 171.089ZM94.8564 156.888V165.3H102.062C105.71 165.3 107.821 163.883 107.821 161.079C107.821 158.305 105.711 156.888 102.062 156.888H94.8564ZM108.967 170.969C108.967 167.953 106.766 166.627 102.725 166.627H94.8564V175.34H102.725C106.765 175.34 108.967 174.014 108.967 170.969Z"/><path fill="#fff" d="M129.046 170.728H116.805L114.121 176.667H112.463L122.171 155.561H123.709L133.418 176.667H131.76L129.046 170.728ZM128.473 169.431L122.925 157.25L117.407 169.431H128.473Z"/><path fill="#fff" d="M154.432 171.089C154.432 174.647 151.839 176.667 146.653 176.667H137.246V155.561H146.05C150.573 155.561 153.317 157.461 153.317 160.958C153.317 163.461 151.9 165.089 149.79 165.782C152.774 166.355 154.432 168.164 154.432 171.089ZM138.784 156.888V165.3H145.99C149.638 165.3 151.749 163.883 151.749 161.079C151.749 158.305 149.639 156.888 145.99 156.888H138.784ZM152.895 170.969C152.895 167.953 150.694 166.627 146.654 166.627H138.784V175.34H146.654C150.694 175.34 152.895 174.014 152.895 170.969Z"/><path fill="#fff" d="M165.979 169.4V176.667H164.441V169.4L155.939 155.56H157.627L165.255 167.983L172.883 155.56H174.481L165.979 169.4Z"/><path fill="#fff" d="M184.673 167.29L180.814 171.21V176.667H177.799V155.561H180.814V167.351L192.272 155.561H195.709L186.694 165.059L196.282 176.667H192.754L184.673 167.29Z"/><path fill="#fff" d="M199.476 155.561H202.491V176.667H199.476V155.561Z"/><path fill="#fff" d="M208.822 155.561H217.717C224.501 155.561 229.114 159.843 229.114 166.115C229.114 172.387 224.501 176.668 217.717 176.668H208.822V155.561ZM217.535 174.044C222.751 174.044 226.098 170.848 226.098 166.114C226.098 161.38 222.751 158.184 217.535 158.184H211.836V174.043H217.535V174.044Z"/><path fill="#fff" d="M231.796 174.255L232.911 171.903C234.479 173.32 237.163 174.345 239.876 174.345C243.524 174.345 245.093 172.927 245.093 171.088C245.093 165.933 232.309 169.189 232.309 161.349C232.309 158.093 234.841 155.32 240.389 155.32C242.862 155.32 245.424 155.983 247.173 157.189L246.178 159.601C244.339 158.425 242.259 157.882 240.389 157.882C236.801 157.882 235.263 159.39 235.263 161.229C235.263 166.385 248.048 163.159 248.048 170.908C248.048 174.135 245.454 176.908 239.876 176.908C236.651 176.908 233.485 175.822 231.796 174.255Z"/><path fill="#fff" d="M261.916 169.189V176.667H257.031V169.129L248.86 155.561H254.046L259.685 164.939L265.324 155.561H270.118L261.916 169.189Z"/><path fill="#fff" d="M269.936 166.114C269.936 159.843 274.821 155.199 281.484 155.199C288.118 155.199 293.031 159.812 293.031 166.114C293.031 172.416 288.118 177.029 281.484 177.029C274.821 177.029 269.936 172.386 269.936 166.114ZM288.087 166.114C288.087 162.103 285.253 159.36 281.483 159.36C277.714 159.36 274.88 162.103 274.88 166.114C274.88 170.124 277.714 172.868 281.483 172.868C285.253 172.868 288.087 170.124 288.087 166.114Z"/><path fill="#fff" d="M296.527 167.381V155.561H301.412V167.2C301.412 171.211 303.161 172.869 306.116 172.869C309.1 172.869 310.819 171.211 310.819 167.2V155.561H315.643V167.381C315.643 173.592 312.085 177.029 306.085 177.029C300.085 177.029 296.527 173.592 296.527 167.381Z"/><path fill="#fff" d="M339.824 155.561V176.667H335.814L325.292 163.853V176.667H320.468V155.561H324.508L335 168.375V155.561H339.824Z"/><path fill="#fff" d="M359.089 165.782H363.551V174.345C361.23 176.093 358.033 177.029 355.018 177.029C348.385 177.029 343.5 172.475 343.5 166.114C343.5 159.752 348.385 155.199 355.108 155.199C358.817 155.199 361.892 156.466 363.942 158.847L360.806 161.742C359.269 160.114 357.49 159.36 355.349 159.36C351.248 159.36 348.445 162.103 348.445 166.114C348.445 170.063 351.249 172.868 355.289 172.868C356.616 172.868 357.852 172.627 359.089 171.963V165.782V165.782Z"/><path fill="#ED1E79" d="M101.807 5H71.8066V36H101.807V5Z"/><path fill="#3FA9F5" d="M71.8066 5H41.8066V36H71.8066V5Z"/><path fill="#fff" d="M307.516 91.462C306.408 94.661 304.808 97.092 302.717 98.754C299.543 101.298 295.267 102.57 289.889 102.57C284.511 102.57 280.236 101.298 277.062 98.754C274.971 97.091 273.372 94.661 272.263 91.462H276.136C277.03 93.314 278.201 94.812 279.65 95.959C282.081 97.898 285.494 98.868 289.889 98.868C294.273 98.868 297.685 97.898 300.129 95.959C301.565 94.813 302.71 93.314 303.567 91.462H307.516Z"/></svg>